# xmcd
#
# Track frame offsets:
#	150
#	15400
#	17605
#	19795
#	22027
#
# Disc length: 324 seconds
#
# Revision: 1
# Processed by: cddbd v1.5PL3 Copyright (c) Steve Scherf et al.
# Submitted via: audiograbber 1.83.01
#
DISCID=2b014205
DTITLE=Jessica Andrews - From Heart Shaped World Single
DYEAR=1999
DGENRE=Country
TTITLE0=I Will Be There For You
TTITLE1=Ruby Shoes
TTITLE2=You Go First
TTITLE3=Unbreakable Heart
TTITLE4=Heart Shaped World
EXTD=
EXTT0=
EXTT1=
EXTT2=
EXTT3=
EXTT4=
PLAYORDER=
